<svg width="18" height="16" viewBox="0 0 18 16" fill="none" xmlns="http://www.w3.org/2000/svg">
<path fill-rule="evenodd" clip-rule="evenodd" d="M7.90817 15.6003C8.16297 15.8613 8.49688 16 8.85209 16C9.20519 16 9.5395 15.8614 9.79656 15.6017L15.8949 9.39376C17.9467 7.30626 18.0976 3.98733 16.2497 1.84709C15.2612 0.702723 13.8995 0.0511711 12.4194 0.0026245C11.1739 -0.0368779 9.95756 0.370756 8.98258 1.14356L8.85221 1.2469L8.72174 1.14367C7.74507 0.370914 6.52307 -0.0350733 5.28456 0.00263279C3.8029 0.0493721 2.44313 0.700725 1.45276 1.84702C-0.393392 3.98729 -0.242558 7.30622 1.80927 9.39376L7.90817 15.6003ZM14.8599 8.30197L8.85207 14.4155L2.84605 8.30187C1.36254 6.79 1.2266 4.40653 2.55635 2.86698C3.26566 2.04557 4.25156 1.5678 5.33039 1.53166C5.37562 1.52963 5.41827 1.52963 5.45735 1.52963H5.45932C6.48981 1.52963 7.4536 1.93803 8.18159 2.67614L8.33512 2.83327C8.60979 3.11054 9.09842 3.11027 9.37056 2.83363L9.52596 2.67649C10.2814 1.90684 11.2818 1.49586 12.3742 1.53162C13.4536 1.5674 14.4401 2.04523 15.1497 2.86699C16.4792 4.40817 16.3456 6.79173 14.8599 8.30197ZM5.7839 3.60303C5.25752 3.51966 4.73951 3.67071 4.35747 4.02188C3.63647 4.68529 3.60453 5.87882 4.32042 6.6772C4.42196 6.79084 4.55652 6.84426 4.68833 6.84426C4.8061 6.84426 4.92273 6.80353 5.01762 6.71423L5.01908 6.71288C5.23297 6.51738 5.25137 6.17486 5.0543 5.95438C4.75986 5.6258 4.69974 5.11329 5.02322 4.81543C5.23918 4.61862 5.50372 4.62678 5.63401 4.64847C5.89028 4.68794 6.15958 4.51199 6.2071 4.21018C6.25339 3.90609 6.04703 3.64535 5.7839 3.60303Z" fill="#197E4C"/>
</svg>
