<svg width="30" height="30" viewBox="0 0 30 30" fill="none" xmlns="http://www.w3.org/2000/svg">
<path fill-rule="evenodd" clip-rule="evenodd" d="M15 0C6.71573 0 0 6.71573 0 15C0 23.2843 6.71573 30 15 30C23.2843 30 30 23.2843 30 15C30 6.71573 23.2843 0 15 0ZM14.3537 6.38521L8.56781 8.00955C8.11664 8.13623 7.71928 8.4067 7.43625 8.77976C7.15322 9.15282 7.00003 9.60804 7 10.0761V16.3082C6.99996 17.0563 7.15224 17.7966 7.4476 18.484C7.74295 19.1715 8.1752 19.7918 8.71808 20.3073L9.03229 20.603L9.18698 20.7467L9.49114 21.0255L9.78847 21.2928L10.0794 21.5488L10.3638 21.7936L10.6419 22.0271C11.0079 22.3305 11.3571 22.6037 11.6898 22.8465L11.9365 23.0231C13.1539 23.877 14.1423 24.3047 14.9355 24.3047C15.7286 24.3047 16.717 23.877 17.9345 23.0231L18.1812 22.8465C18.5388 22.5841 18.8882 22.3109 19.2291 22.0271L19.5071 21.7936L19.7916 21.5488L20.0825 21.2928L20.3798 21.0255L20.684 20.7467L20.995 20.4565L21.1529 20.3073C21.6958 19.7918 22.128 19.1715 22.4234 18.484C22.7187 17.7966 22.871 17.0563 22.871 16.3082V10.0761C22.8709 9.60804 22.7178 9.15282 22.4347 8.77976C22.1517 8.4067 21.7543 8.13623 21.3032 8.00955L15.5173 6.38481C15.1368 6.27798 14.7342 6.27838 14.3537 6.38521ZM15.1368 7.73709L20.9227 9.36143C21.0787 9.40526 21.216 9.4988 21.3139 9.62782C21.4117 9.75683 21.4647 9.91425 21.4647 10.0761V16.3082C21.4647 16.8659 21.3512 17.4178 21.131 17.9304C20.9108 18.4429 20.5885 18.9054 20.1838 19.2896L19.8945 19.5617L19.6112 19.8237L19.3348 20.0749L19.0652 20.3157L18.802 20.5452L18.673 20.656L18.4199 20.8698L18.2961 20.9726L18.0534 21.1704L17.8176 21.3574C17.779 21.3875 17.7404 21.4176 17.7023 21.4465L17.4773 21.6174C17.4403 21.6455 17.4037 21.6724 17.3672 21.6989L17.153 21.8538L17.0485 21.9272L16.8448 22.066C16.8159 22.0855 16.787 22.1044 16.7586 22.1229L16.7456 22.1314L16.5527 22.2542C15.86 22.6848 15.316 22.9003 14.9355 22.9003C14.555 22.9003 14.0114 22.6848 13.3183 22.2542L13.1254 22.1314C13.0922 22.1098 13.0591 22.088 13.0261 22.066L12.8228 21.9272L12.6119 21.7779L12.5034 21.6989L12.2824 21.5335C12.2057 21.4752 12.1293 21.4164 12.0534 21.357L11.8175 21.1704L11.5749 20.9726L11.3257 20.7639C11.2916 20.7356 11.2577 20.7068 11.2235 20.6777L11.198 20.656L10.9384 20.4317L10.672 20.1965L10.3988 19.9505L10.1192 19.6941L9.83267 19.4269L9.68722 19.2892C9.28255 18.9051 8.96033 18.4427 8.74013 17.9304C8.51993 17.418 8.40635 16.8662 8.40629 16.3086V10.0761C8.40639 9.91426 8.45944 9.7569 8.55736 9.62796C8.65528 9.49902 8.7927 9.40557 8.94871 9.36183L14.7346 7.73669C14.866 7.69986 15.0054 7.70026 15.1368 7.73709ZM17.531 12.7591C17.6842 12.6006 17.892 12.5074 18.1115 12.4989C18.3309 12.4904 18.5453 12.5672 18.71 12.7134C18.8748 12.8596 18.9775 13.0641 18.9967 13.2844C19.016 13.5047 18.9503 13.724 18.8134 13.8969L18.7589 13.9588L15.0086 17.8498C14.8669 17.9967 14.6779 18.088 14.4754 18.1074C14.273 18.1267 14.0703 18.0728 13.9037 17.9553L13.8374 17.9036L11.17 15.5968C11.0029 15.4527 10.8974 15.2493 10.8753 15.0289C10.8532 14.8085 10.9163 14.5879 11.0515 14.4131C11.1867 14.2383 11.3836 14.1227 11.6012 14.0902C11.8189 14.0578 12.0406 14.111 12.2203 14.2388L12.2855 14.2894L14.3412 16.068L17.531 12.7591Z" fill="white"/>
</svg>
