<svg width="30" height="30" viewBox="0 0 30 30" fill="none" xmlns="http://www.w3.org/2000/svg">
<path fill-rule="evenodd" clip-rule="evenodd" d="M15 30C23.2843 30 30 23.2843 30 15C30 6.71573 23.2843 0 15 0C6.71573 0 0 6.71573 0 15C0 23.2843 6.71573 30 15 30ZM7 20.2081C7.00108 21.029 7.33185 21.8161 7.91976 22.3965C8.50767 22.977 9.30474 23.3036 10.1362 23.3047H19.8638C20.6954 23.3042 21.4928 22.9777 22.0808 22.3971C22.6689 21.8165 22.9995 21.0292 23 20.2081V9.40129C22.9995 8.58019 22.6689 7.79286 22.0808 7.21225C21.4928 6.63164 20.6954 6.30522 19.8638 6.30469H10.1362C9.30474 6.30576 8.50767 6.63235 7.91976 7.21284C7.33185 7.79334 7.00108 8.58035 7 9.40129V20.2081ZM8.40954 20.2081V9.40129C8.41008 8.9493 8.59217 8.51598 8.91586 8.19637C9.23954 7.87677 9.67841 7.69698 10.1362 7.69644H19.8638C20.3218 7.69698 20.7609 7.8767 21.0849 8.19625C21.4089 8.5158 21.5914 8.94912 21.5925 9.40129V20.2081C21.5914 20.6603 21.4089 21.0936 21.0849 21.4131C20.7609 21.7327 20.3218 21.9124 19.8638 21.9129H10.1362C9.67841 21.9124 9.23954 21.7326 8.91586 21.413C8.59217 21.0934 8.41008 20.6601 8.40954 20.2081ZM10.249 11.2468H19.6666C19.8439 11.2468 20.0139 11.1745 20.1392 11.0458C20.2645 10.9172 20.335 10.7427 20.335 10.5607C20.335 10.3788 20.2645 10.2043 20.1392 10.0756C20.0139 9.94697 19.8439 9.87469 19.6666 9.87469H10.249C10.0718 9.87469 9.90176 9.94697 9.77641 10.0756C9.65106 10.2043 9.58065 10.3788 9.58065 10.5607C9.58065 10.7427 9.65106 10.9172 9.77641 11.0458C9.90176 11.1745 10.0718 11.2468 10.249 11.2468ZM10.249 15.4907H19.6666C19.8379 15.4813 19.9991 15.4047 20.1171 15.2769C20.2351 15.1491 20.3008 14.9798 20.3008 14.8037C20.3008 14.6276 20.2351 14.4582 20.1171 14.3304C19.9991 14.2026 19.8379 14.1261 19.6666 14.1166H10.249C10.0777 14.1261 9.91651 14.2026 9.79852 14.3304C9.68054 14.4582 9.61478 14.6276 9.61478 14.8037C9.61478 14.9798 9.68054 15.1491 9.79852 15.2769C9.91651 15.4047 10.0777 15.4813 10.249 15.4907ZM10.249 19.7347H19.7851C19.9564 19.7252 20.1176 19.6487 20.2356 19.5209C20.3536 19.3931 20.4194 19.2237 20.4194 19.0477C20.4194 18.8716 20.3536 18.7022 20.2356 18.5744C20.1176 18.4466 19.9564 18.3701 19.7851 18.3606H10.249C10.0777 18.3701 9.91651 18.4466 9.79852 18.5744C9.68054 18.7022 9.61478 18.8716 9.61478 19.0477C9.61478 19.2237 9.68054 19.3931 9.79852 19.5209C9.91651 19.6487 10.0777 19.7252 10.249 19.7347Z" fill="white"/>
</svg>
