<svg width="30" height="30" viewBox="0 0 30 30" fill="none" xmlns="http://www.w3.org/2000/svg">
<path fill-rule="evenodd" clip-rule="evenodd" d="M15 30C23.2843 30 30 23.2843 30 15C30 6.71573 23.2843 0 15 0C6.71573 0 0 6.71573 0 15C0 23.2843 6.71573 30 15 30ZM6 11.2432C6 9.45472 7.61773 8 9.60608 8H20.3939C22.3824 8 24.0002 9.45472 24 11.2434V18.7568C24 20.5453 22.3823 22 20.3937 22H9.60608C7.61791 22 6 20.5453 6 18.7566V11.2432ZM22.2482 10.2444L18.4596 13.907L22.5639 17.3041V11.2434C22.5639 10.8768 22.4443 10.5376 22.2482 10.2444ZM21.1416 9.41827C20.9074 9.34042 20.6577 9.29166 20.3939 9.29166H9.60608C9.34247 9.29166 9.09273 9.34042 8.85863 9.41827L14.9998 15.3553L21.1416 9.41827ZM11.5404 13.907L7.75194 10.2444C7.55587 10.5376 7.43625 10.877 7.43625 11.2434V17.3041L11.5404 13.907ZM7.46717 19.0333C7.61827 19.9779 8.51485 20.7083 9.60608 20.7083H20.3939C21.485 20.7083 22.3817 19.9779 22.5328 19.0333L17.4814 14.8524L14.9996 17.2514L12.5182 14.8524L7.46717 19.0333Z" fill="white"/>
</svg>
