<svg width="30" height="30" viewBox="0 0 30 30" fill="none" xmlns="http://www.w3.org/2000/svg">
<path fill-rule="evenodd" clip-rule="evenodd" d="M15 30C23.2843 30 30 23.2843 30 15C30 6.71573 23.2843 0 15 0C6.71573 0 0 6.71573 0 15C0 23.2843 6.71573 30 15 30ZM16.2686 15.9604L16.6926 15.8663C18.1209 15.5497 19.3482 14.8062 20.1557 13.7926C20.9614 12.7815 21.2978 11.5686 21.1194 10.3778C20.9408 9.1855 20.2543 8.07221 19.1633 7.25447C18.071 6.43579 16.6536 5.97516 15.1747 5.97144C13.5592 5.97159 12.0223 6.5167 10.8994 7.4693C9.77864 8.42004 9.16602 9.69302 9.16602 11.0026C9.16602 11.2061 9.26069 11.4183 9.45948 11.587C9.66061 11.7576 9.94737 11.8633 10.2593 11.8633C10.5712 11.8633 10.8579 11.7576 11.059 11.587C11.2578 11.4183 11.3525 11.2061 11.3525 11.0026C11.3525 10.3308 11.5878 9.68134 12.017 9.13642C12.4453 8.59263 13.046 8.17843 13.7355 7.93615C14.4249 7.6939 15.1801 7.6313 15.9082 7.75414C16.6362 7.877 17.3136 8.18148 17.8518 8.63802C18.3907 9.09516 18.7678 9.68667 18.9216 10.3427C19.0757 10.9998 18.9957 11.6799 18.6962 12.2933C18.3974 12.9052 17.8974 13.4166 17.2713 13.7715C16.6455 14.1262 15.9163 14.3123 15.1754 14.3123C14.8635 14.3123 14.5767 14.418 14.3756 14.5887C14.1768 14.7573 14.0821 14.9695 14.0821 15.173V18.8013C14.0821 19.0048 14.1768 19.217 14.3756 19.3857C14.5767 19.5563 14.8635 19.662 15.1754 19.662C15.4873 19.662 15.774 19.5563 15.9751 19.3857C16.1739 19.217 16.2686 19.0048 16.2686 18.8013V15.9604ZM14.0821 23.1107C14.0821 23.3142 14.1768 23.5265 14.3756 23.6951C14.5767 23.8658 14.8635 23.9714 15.1754 23.9714C15.4873 23.9714 15.774 23.8658 15.9751 23.6951C16.1739 23.5265 16.2686 23.3142 16.2686 23.1107C16.2686 22.9072 16.1739 22.695 15.9751 22.5263C15.774 22.3558 15.4873 22.25 15.1754 22.25C14.8635 22.25 14.5767 22.3558 14.3756 22.5263C14.1768 22.695 14.0821 22.9072 14.0821 23.1107Z" fill="white"/>
</svg>
