<svg width="60" height="54" viewBox="0 0 60 54" fill="none" xmlns="http://www.w3.org/2000/svg">
<path d="M0 15.1412C0 8.42985 5.44059 2.98926 12.1519 2.98926C18.8632 2.98926 24.3038 8.42985 24.3038 15.1412C24.3038 21.8525 18.8632 27.2931 12.1519 27.2931C5.44059 27.2931 0 21.8525 0 15.1412Z" fill="url(#paint0_linear_4834_22745)" fill-opacity="0.6"/>
<path d="M60 39.065C60 47.2444 53.3693 53.8751 45.1899 53.8751C37.0105 53.8751 30.3797 47.2444 30.3797 39.065C30.3797 30.8856 37.0105 24.2549 45.1899 24.2549C53.3693 24.2549 60 30.8856 60 39.065Z" fill="url(#paint1_linear_4834_22745)" fill-opacity="0.6"/>
<path fill-rule="evenodd" clip-rule="evenodd" d="M42.3122 13.6806C45.5056 13.6806 48.114 16.2622 48.1569 19.4448L50.4433 37.6875V37.768C50.4433 43.5054 45.7739 48.1747 40.0366 48.1747H17.2427C14.0171 48.1747 11.3926 45.5556 11.3926 42.33V42.2656L13.6736 19.4663C13.7058 16.2729 16.3195 13.686 19.5183 13.686H30.8857C31.2775 13.6645 32.9628 13.6538 34.2562 14.8453C34.8842 15.4249 35.6356 16.5091 35.6356 18.3929C35.6356 19.1067 35.0613 19.681 34.3475 19.681C33.6337 19.681 33.0594 19.1067 33.0594 18.3929C33.0594 17.6308 32.8769 17.078 32.5119 16.7398C31.9614 16.2365 31.083 16.2607 31.0328 16.2621C31.0316 16.2622 31.0309 16.2622 31.0306 16.2622L30.977 16.2675H19.5237C17.715 16.2675 16.2498 17.7328 16.2498 19.5361V19.6005L13.9688 42.389C13.9956 44.1655 15.4554 45.5985 17.2373 45.5985H40.0312C44.3248 45.5985 47.8188 42.126 47.8671 37.8377L45.5861 19.6059V19.5254C45.5861 17.722 44.1155 16.2568 42.3122 16.2568H41.0885C38.9363 16.2568 37.5999 14.8721 37.5999 12.6394V9.26891C37.5999 5.57637 34.5944 2.57619 30.9072 2.57619C27.2147 2.57619 24.2145 5.58174 24.2145 9.26891V11.3996C24.2145 12.1134 23.6402 12.6877 22.9264 12.6877C22.2126 12.6877 21.6383 12.1134 21.6383 11.3996V9.26891C21.6383 4.15947 25.7978 0 30.9072 0C36.0166 0 40.1761 4.15947 40.1761 9.26891V12.6394C40.1761 13.6055 40.5411 13.6806 41.0885 13.6806H42.3122ZM22.9375 24.0921V21.8112C22.9375 21.1778 23.4474 20.668 24.0753 20.6733C24.7033 20.6733 25.2131 21.1832 25.2131 21.8112V24.0921C25.2131 24.7201 24.7033 25.23 24.0753 25.23C23.4474 25.23 22.9375 24.7201 22.9375 24.0921ZM38.8938 21.8058V24.0868C38.8938 24.7201 38.3839 25.23 37.7559 25.2246C37.128 25.2246 36.6181 24.7147 36.6181 24.0868V21.8058C36.6181 21.1778 37.128 20.668 37.7559 20.668C38.3839 20.668 38.8938 21.1778 38.8938 21.8058Z" fill="#66C496"/>
<defs>
<linearGradient id="paint0_linear_4834_22745" x1="-3.09783e-07" y1="7.21601" x2="12.1519" y2="27.2931" gradientUnits="userSpaceOnUse">
<stop stop-color="#97DF8B" stop-opacity="0"/>
<stop offset="0.734375" stop-color="#97DF8B" stop-opacity="0.8"/>
<stop offset="1" stop-color="#97DF8B" stop-opacity="0.8"/>
</linearGradient>
<linearGradient id="paint1_linear_4834_22745" x1="60" y1="48.7238" x2="45.1899" y2="24.2549" gradientUnits="userSpaceOnUse">
<stop stop-color="#97DF8B" stop-opacity="0"/>
<stop offset="0.734375" stop-color="#97DF8B" stop-opacity="0.8"/>
<stop offset="1" stop-color="#97DF8B" stop-opacity="0.8"/>
</linearGradient>
</defs>
</svg>
