<svg width="246" height="40" viewBox="0 0 246 40" fill="none" xmlns="http://www.w3.org/2000/svg">
<g clip-path="url(#clip0_4882_17183)">
<path d="M57.7523 4.25862C55.8799 2.5271 53.2138 1.66113 49.7553 1.66113H39.9146V29.271H45.485V19.6931H49.7553C51.728 19.6931 53.4497 19.4139 54.9225 18.8558C56.3945 18.2974 57.5169 17.5463 58.2884 16.6016C59.8032 14.7985 60.5613 12.7237 60.5613 10.3764C60.5613 8.02997 59.6244 5.99097 57.7523 4.25862ZM53.5911 14.0256C52.7531 14.8498 51.5407 15.2614 49.9552 15.2614H45.485V14.0029V6.09333H49.9552C51.5411 6.09333 52.7531 6.50567 53.5911 7.3291C54.4286 8.15379 54.848 9.26911 54.848 10.6776C54.848 12.0861 54.4286 13.2017 53.5911 14.0256Z" fill="#002F3C"/>
<path d="M63.8495 26.4634C61.7163 24.3806 60.6494 21.6513 60.6494 18.2756C60.6494 14.9005 61.7294 12.1843 63.8891 10.1267C66.0484 8.07005 68.7286 7.0415 71.929 7.0415C75.1291 7.0415 77.8089 8.07005 79.9686 10.1267C82.1279 12.1838 83.2081 14.9 83.2081 18.2756C83.2081 21.6518 82.1216 24.3806 79.9488 26.4634C77.776 28.5466 75.0824 29.5887 71.8697 29.5887C68.6557 29.5887 65.9828 28.5466 63.8495 26.4634ZM71.8697 24.8811C73.4236 24.8811 74.7598 24.3078 75.8796 23.1605C76.9986 22.0132 77.5585 20.3916 77.5585 18.2949C77.5585 16.1982 77.0052 14.5833 75.8993 13.4494C74.7934 12.316 73.4561 11.7487 71.8895 11.7487C70.322 11.7487 68.9981 12.316 67.9191 13.4494C66.8389 14.5838 66.2991 16.2053 66.2991 18.3146C66.2991 20.4249 66.8384 22.0464 67.9191 23.1803C68.9981 24.3142 70.3153 24.8811 71.8697 24.8811Z" fill="#002F3C"/>
<path d="M87.7079 26.5021C85.7059 24.445 84.7056 21.7161 84.7056 18.3141C84.7056 14.9126 85.7059 12.1833 87.7079 10.1262C89.7094 8.06907 92.3043 7.04053 95.4908 7.04053C98.1507 7.04053 100.376 7.68747 102.168 8.97926C103.959 10.2715 105.156 12.1041 105.763 14.4775H99.7577C99.0472 12.658 97.6249 11.7482 95.4908 11.7482C93.8843 11.7482 92.6265 12.3353 91.7178 13.5083C90.8096 14.6817 90.3552 16.284 90.3552 18.3141C90.3552 20.3451 90.8096 21.9473 91.7178 23.1203C92.6265 24.2937 93.8839 24.8804 95.4908 24.8804C97.5984 24.8804 99.0203 23.9581 99.7577 22.1116H105.763C105.131 24.4058 103.913 26.2257 102.108 27.5707C100.304 28.915 98.0986 29.5881 95.4908 29.5881C92.3043 29.5881 89.7094 28.5591 87.7079 26.5021Z" fill="#002F3C"/>
<path d="M136.536 28.7586L127.686 7.35742H133.991L139.69 22.7831L145.576 7.35742H151.558L138.238 39.6349H131.907L136.536 28.7586Z" fill="#002F3C"/>
<path d="M163.583 24.4032V28.8994C161.137 29.4664 158.67 29.4836 157.62 29.2936C156.36 29.0658 155.329 28.6105 154.524 27.9273C153.317 26.9021 152.713 25.2076 152.713 22.8427V4.62073C152.713 3.99989 153.089 3.44097 153.665 3.20806L158.264 1.34766V7.34667H163.583V11.8795H158.264V22.8422C158.264 23.552 158.434 24.0582 158.776 24.3599C158.989 24.5489 159.299 24.6774 159.708 24.7499C160.489 24.8875 161.958 24.7688 163.583 24.4032Z" fill="#002F3C"/>
<path d="M22.7977 7.32952V22.2309L14.2294 25.6968L5.66103 22.2309V7.32952H22.7977ZM28.4587 1.66113H0V23.7004C0 25.1228 0.862384 26.4023 2.17952 26.9351L13.0157 31.3189C13.4049 31.4759 13.8171 31.5551 14.2294 31.5551C14.6416 31.5551 15.0539 31.4759 15.443 31.3189L26.2792 26.9351C27.5963 26.4023 28.4587 25.1228 28.4587 23.7004V1.66113Z" fill="#5ABA86"/>
<path d="M119.005 17.0338L127.202 7.35736H120.188L114.228 15.3019H112.838V0H107.268V29.2715H112.838V19.654H114.363L121.082 28.6599C121.37 29.0445 121.821 29.2715 122.302 29.2715H128.545L119.005 17.0338Z" fill="#002F3C"/>
<path fill-rule="evenodd" clip-rule="evenodd" d="M184.526 0.917969C182.49 0.917969 180.308 1.35779 177.983 2.2198C175.653 3.05874 173.675 4.17119 172.062 5.56535C170.446 6.93671 169.53 8.42587 169.53 10.0344C169.53 11.2167 169.974 12.2379 170.836 13.066L170.845 13.0731C171.658 13.8265 172.698 14.4564 173.946 14.9727L173.96 14.9779C175.199 15.4553 176.937 16.0551 179.167 16.7762L179.178 16.7795C181.461 17.4691 183.044 18.1778 183.985 18.8844L183.991 18.8884C184.927 19.5747 185.326 20.3316 185.326 21.1694C185.326 21.8388 185.082 22.5682 184.53 23.3672C183.996 24.1413 183.214 24.8016 182.159 25.3371L182.154 25.3395C181.151 25.8598 179.959 26.1301 178.56 26.1301C177.657 26.1301 176.909 26.0694 176.306 25.9544C175.714 25.8413 175.298 25.7242 175.034 25.6125C175.091 25.5046 175.132 25.3759 175.132 25.2287C175.132 25.0687 175.081 24.9099 174.974 24.7779C174.875 24.6553 174.754 24.5856 174.656 24.5454C174.473 24.4696 174.268 24.4542 174.095 24.4542C173.9 24.4542 173.738 24.5255 173.622 24.5962C173.505 24.6682 173.399 24.7613 173.306 24.8572C173.122 25.0484 172.932 25.3106 172.735 25.6226L172.732 25.6285C172.547 25.9276 172.4 26.1996 172.298 26.4404C172.199 26.6694 172.12 26.9216 172.12 27.1653C172.12 27.6333 172.367 27.9994 172.708 28.2581C173.034 28.5042 173.472 28.6802 173.977 28.8126C175.002 29.1061 176.351 29.2432 177.997 29.2432C180 29.2432 181.807 28.8427 183.4 28.0266C184.998 27.2459 186.255 26.2178 187.146 24.932C188.052 23.6367 188.528 22.2926 188.528 20.9088C188.528 19.2545 187.752 17.8746 186.306 16.7898C184.919 15.7324 182.814 14.8149 180.039 14.0138C178.173 13.4454 176.736 12.9784 175.727 12.6118C174.75 12.2332 173.994 11.7948 173.436 11.3082C172.948 10.8632 172.732 10.3723 172.732 9.81095C172.732 9.18499 173.192 8.38267 174.483 7.41597C175.781 6.46108 177.318 5.65442 179.099 5.00053C180.89 4.34335 182.381 4.03098 183.588 4.03098C183.947 4.03098 184.179 4.05577 184.309 4.08818C184.49 4.13317 184.644 4.17685 184.773 4.21887C184.849 4.25025 184.945 4.30157 185.065 4.38038L185.11 4.41001L185.159 4.43102C185.373 4.52189 185.604 4.58959 185.838 4.58959C186.122 4.58959 186.42 4.48401 186.621 4.21153C186.797 3.97221 186.839 3.68425 186.839 3.44274C186.839 2.91746 186.799 2.43307 186.716 1.99274C186.625 1.51201 186.255 1.24099 185.883 1.10328C185.517 0.96839 185.051 0.917969 184.526 0.917969ZM207.793 29.0976C208.104 28.7838 208.255 28.3866 208.255 27.9473L208.218 24.0314V24.0252C208.168 21.5439 208.142 19.6119 208.142 18.2274C208.142 15.0771 207.818 12.6373 207.123 10.9643C206.46 9.34389 205.52 8.21721 204.179 8.21721C203.439 8.21721 202.724 8.5401 202.049 9.08142C201.372 9.62221 200.696 10.4096 200.016 11.4165C198.671 13.3814 197.479 15.4956 196.44 17.7584L196.439 17.7633C195.768 19.2608 195.064 20.8962 194.328 22.6693C194.322 21.2676 194.311 19.5871 194.298 17.6275C194.274 13.9993 194.236 11.7716 194.184 10.9731L194.148 9.94194V9.94011C194.073 7.47752 193.947 5.45139 193.77 3.86642C193.693 3.06328 193.59 2.41933 193.445 1.96245C193.375 1.73679 193.281 1.51459 193.147 1.33751C193.01 1.15661 192.775 0.95521 192.435 0.95521C191.958 0.95521 191.518 1.02398 191.143 1.19335C190.941 1.28453 190.746 1.41758 190.603 1.61258C190.454 1.8144 190.384 2.0478 190.384 2.28827C190.384 2.36253 190.4 2.46268 190.409 2.52289L190.41 2.52684C190.423 2.61185 190.443 2.72581 190.469 2.86692C190.519 3.14985 190.595 3.55301 190.694 4.07511C190.885 5.06815 191.096 7.76341 191.323 12.2241V12.2279C191.397 13.5344 191.497 16.2698 191.623 20.4424C191.747 24.5894 191.81 27.4113 191.81 28.9156C191.81 29.2751 191.968 29.6011 192.29 29.8041C192.566 29.9785 192.905 30.0252 193.223 30.0252C193.754 30.0252 194.118 29.6474 194.351 29.2769C194.598 28.9204 194.794 28.5458 194.936 28.1534C196.581 23.8996 198.286 19.9829 200.052 16.4025L200.054 16.4009C200.934 14.6042 201.723 13.2911 202.42 12.4358C203.145 11.5451 203.655 11.293 203.953 11.293C203.976 11.293 204.072 11.2982 204.238 11.5036C204.408 11.7136 204.597 12.0696 204.788 12.6126L204.789 12.6164C205.151 13.6276 205.354 15.5085 205.354 18.3392C205.354 20.2645 205.292 22.7507 205.167 25.8005L205.092 28.3856V28.3942C205.092 28.7981 205.286 29.1338 205.626 29.3374C205.911 29.5315 206.238 29.6155 206.58 29.6155C207.051 29.6155 207.473 29.4482 207.793 29.0976ZM216.583 28.2748C218.392 28.2748 220.022 27.7973 221.451 26.8339L221.457 26.8296C222.847 25.8666 223.935 24.7113 224.708 23.3614C225.461 22.0479 225.875 20.8273 225.875 19.7171C225.875 18.4493 225.496 17.3246 224.733 16.37C224.028 15.4892 223.161 14.6296 222.136 13.79C221.958 13.6404 221.819 13.5179 221.714 13.4211C221.725 13.4051 221.734 13.3888 221.743 13.3726C221.778 13.3138 221.86 13.1652 221.86 12.9765C221.86 12.8261 221.821 12.6452 221.692 12.486C221.584 12.3515 221.447 12.2767 221.324 12.2366C221.197 12.1848 221.063 12.1626 220.956 12.1501C220.819 12.1341 220.66 12.1275 220.485 12.1275C219.848 12.1275 219.264 12.2366 218.748 12.4746C218.244 12.6839 217.759 13.0701 217.759 13.7213C217.759 13.9665 217.849 14.1848 217.956 14.3611C218.064 14.5405 218.212 14.7149 218.383 14.8839C218.715 15.2142 219.219 15.6202 219.877 16.0969L219.879 16.0982C220.859 16.8028 221.61 17.4574 222.148 18.0605C222.626 18.5976 222.861 19.2153 222.861 19.9405C222.861 20.564 222.627 21.3127 222.087 22.2006C221.559 23.0413 220.846 23.7633 219.935 24.3655L219.929 24.3695C219.074 24.9504 218.15 25.2364 217.146 25.2364C216.009 25.2364 215.267 25.002 214.815 24.6333C214.387 24.2833 214.13 23.7373 214.13 22.8826C214.13 21.4701 214.311 20.1769 214.667 18.9988C215.054 17.7989 215.589 16.5818 216.271 15.3469L216.276 15.3372C216.779 14.3864 217.443 13.4147 218.271 12.4228L218.281 12.4118L218.289 12.4004C218.368 12.2968 218.469 12.1578 218.593 11.9851C218.672 11.8814 218.74 11.7841 218.792 11.6983C218.819 11.655 218.847 11.6035 218.872 11.548C218.888 11.5073 218.934 11.3996 218.934 11.2634C218.934 10.8185 218.663 10.5176 218.349 10.3482C218.077 10.1673 217.771 10.0793 217.445 10.0793C216.801 10.0793 216.206 10.3051 215.669 10.7167C215.136 11.1013 214.674 11.6553 214.274 12.3454L214.27 12.352C213.939 12.9387 213.732 13.3089 213.665 13.4404C212.838 14.8795 212.196 16.5027 211.736 18.3051L211.735 18.3127C211.303 20.0999 211.08 21.6268 211.08 22.8826C211.08 24.372 211.521 25.6566 212.425 26.6954C213.375 27.7851 214.804 28.2748 216.583 28.2748ZM233.169 10.4977C233.158 10.5413 233.144 10.5872 233.127 10.635C234.56 10.8897 236.135 11.3252 237.852 11.9366C239.872 12.6222 241.626 13.5032 243.106 14.5854C244.638 15.6867 245.525 16.9839 245.525 18.4881C245.525 20.5859 244.125 22.1121 241.713 23.1269C239.469 24.0713 236.611 24.6842 233.16 24.9824C233.125 24.9855 233.088 24.9886 233.053 24.9915C233.013 26.4379 232.993 27.6338 232.993 28.5805C232.993 29.978 233.055 31.2472 233.178 32.3891C233.227 32.8336 233.256 33.1739 233.256 33.3845C233.256 33.8651 233.151 34.3132 232.906 34.6982C232.634 35.1562 232.2 35.4252 231.656 35.4252C231.372 35.4252 231.068 35.3761 230.812 35.2104C230.532 35.0292 230.373 34.7525 230.325 34.4429L230.32 34.4154L230.319 34.3876C230.294 33.9646 230.257 33.3058 230.206 32.4119L230.205 32.396C230.18 31.5212 230.167 30.6341 230.167 29.7349V29.7307L230.2 25.1396L230.123 25.1451C229.783 25.1709 229.443 25.1839 229.104 25.1839C228.656 25.1839 228.237 25.0211 227.955 24.6364C227.698 24.2856 227.616 23.8309 227.616 23.3667C227.616 23.0384 227.654 22.704 227.791 22.4314C227.864 22.2868 227.973 22.1436 228.133 22.038C228.295 21.9301 228.478 21.8847 228.654 21.8847C228.788 21.8847 228.959 21.9239 229.096 21.9578C229.258 21.9982 229.468 22.0569 229.722 22.1325C229.911 22.1889 230.084 22.2322 230.24 22.2638L230.207 12.9133C230.018 12.8966 229.785 12.8773 229.508 12.8553L229.496 12.8544L229.485 12.8529C228.835 12.7755 228.277 12.6399 227.872 12.4056L227.862 12.4L227.852 12.394C227.409 12.1136 227.166 11.6786 227.166 11.1516C227.166 10.8079 227.197 10.4775 227.299 10.2127C227.353 10.0757 227.438 9.92117 227.582 9.79771C227.736 9.66457 227.928 9.59513 228.129 9.59513C228.534 9.59513 228.966 9.73762 229.402 9.95425L229.829 10.1659C229.938 10.2071 230.085 10.2467 230.275 10.2816C230.376 10.0625 230.486 9.87285 230.606 9.73037L230.623 9.70993L230.642 9.69113C230.966 9.36922 231.449 9.2972 231.88 9.2972C232.152 9.2972 232.43 9.32174 232.659 9.41311C232.781 9.46074 232.92 9.53957 233.034 9.67451C233.157 9.82012 233.219 9.99835 233.219 10.1834C233.219 10.3013 233.192 10.4155 233.169 10.4977ZM236.989 14.2806L236.992 14.2814C238.647 14.8133 240.042 15.4846 241.186 16.2881C242.298 17.0706 242.737 17.8571 242.737 18.6371C242.737 19.1016 242.396 19.6809 241.271 20.3222C240.183 20.9326 238.814 21.4366 237.154 21.8247C235.744 22.1332 234.411 22.3094 233.154 22.3561C233.125 22.3572 233.095 22.3582 233.067 22.3592C233.063 21.4847 233.051 20.1173 233.031 18.2585C233.01 16.2511 232.98 14.5754 232.941 13.2325C233.005 13.2445 233.07 13.2567 233.133 13.2693C234.375 13.5108 235.661 13.8476 236.989 14.2806Z" fill="#002F3C"/>
</g>
<defs>
<clipPath id="clip0_4882_17183">
<rect width="245.581" height="40" fill="white"/>
</clipPath>
</defs>
</svg>
