<svg width="14" height="16" viewBox="0 0 14 16" fill="none" xmlns="http://www.w3.org/2000/svg">
<g clip-path="url(#clip0_6519_22931)">
<path d="M10.1591 1.45454H11.5829C12.1338 1.45454 12.6 1.96873 12.6 2.62109V13.3789C12.6 14.0327 12.1345 14.5454 11.5808 14.5454H2.4192C1.8662 14.5454 1.4 14.0313 1.4 13.3789V2.62109C1.4 1.968 1.8662 1.45454 2.4171 1.45454H3.8451C3.93705 1.45456 4.02807 1.43576 4.113 1.39922C4.19797 1.36268 4.27512 1.30911 4.34015 1.24157C4.40517 1.17404 4.45673 1.09386 4.49192 1.00561C4.5271 0.917368 4.5452 0.822788 4.5452 0.727272C4.5452 0.631756 4.5271 0.537176 4.49192 0.448932C4.45673 0.360688 4.40517 0.280509 4.34015 0.212974C4.27512 0.145439 4.19797 0.0918708 4.113 0.0553284C4.02807 0.018786 3.93705 -1.46144e-05 3.8451 8.52354e-09H2.4171C1.0731 8.52354e-09 0 1.18327 0 2.62109V13.3789C0 14.8146 1.0738 16 2.4192 16H11.5808C12.9269 16 14 14.8174 14 13.3789V2.62109C14 1.18546 12.9269 8.52354e-09 11.5829 8.52354e-09H10.1591C10.0672 -1.46144e-05 9.97613 0.018786 9.8912 0.0553284C9.80627 0.0918708 9.72908 0.145439 9.66405 0.212974C9.59906 0.280509 9.54747 0.360688 9.51228 0.448932C9.47709 0.537176 9.459 0.631756 9.459 0.727272C9.459 0.822788 9.47709 0.917368 9.51228 1.00561C9.54747 1.09386 9.59906 1.17404 9.66405 1.24157C9.72908 1.30911 9.80627 1.36268 9.8912 1.39922C9.97613 1.43576 10.0672 1.45456 10.1591 1.45454Z" fill="#197E4C"/>
<path d="M6.36354 1.45454H7.77769C7.96521 1.45452 8.145 1.37788 8.27761 1.24149C8.41018 1.1051 8.48465 0.92014 8.48465 0.727272C8.48465 0.534408 8.41018 0.34944 8.27761 0.213052C8.145 0.0766656 7.96521 2.95349e-05 7.77769 8.52354e-09H6.36354C6.27067 -1.46144e-05 6.17874 0.018786 6.09295 0.0553284C6.00712 0.0918708 5.92919 0.145439 5.8635 0.212974C5.79782 0.280509 5.74575 0.360688 5.7102 0.448932C5.67466 0.537176 5.65638 0.631756 5.65638 0.727272C5.65638 0.822788 5.67466 0.917368 5.7102 1.00561C5.74575 1.09386 5.79782 1.17404 5.8635 1.24157C5.92919 1.30911 6.00712 1.36268 6.09295 1.39922C6.17874 1.43576 6.27067 1.45456 6.36354 1.45454ZM4.24234 5.09092H9.89889C10.0864 5.09088 10.2662 5.01424 10.3988 4.87784C10.5314 4.74148 10.6058 4.55652 10.6058 4.36364C10.6058 4.17076 10.5314 3.9858 10.3988 3.84942C10.2662 3.71303 10.0864 3.63639 9.89889 3.63636H4.24234C4.14948 3.63635 4.0575 3.65515 3.97171 3.69169C3.88592 3.72824 3.80796 3.7818 3.74229 3.84934C3.67662 3.91687 3.62453 3.99705 3.58899 4.08528C3.55345 4.17352 3.53516 4.26812 3.53516 4.36364C3.53516 4.45916 3.55345 4.55372 3.58899 4.64196C3.62453 4.73024 3.67662 4.8104 3.74229 4.87792C3.80796 4.94548 3.88592 4.99904 3.97171 5.0356C4.0575 5.07212 4.14948 5.09092 4.24234 5.09092ZM4.24234 8.72728H9.89889C10.0864 8.72728 10.2663 8.65064 10.3989 8.51424C10.5315 8.37788 10.606 8.19288 10.606 8C10.606 7.80712 10.5315 7.62212 10.3989 7.48572C10.2663 7.34936 10.0864 7.27272 9.89889 7.27272H4.24234C4.05482 7.27272 3.87496 7.34936 3.74236 7.48572C3.60976 7.62212 3.53526 7.80712 3.53526 8C3.53526 8.19288 3.60976 8.37788 3.74236 8.51424C3.87496 8.65064 4.05482 8.72728 4.24234 8.72728ZM4.24234 12.3636H9.89889C10.0864 12.3636 10.2662 12.287 10.3988 12.1506C10.5314 12.0142 10.6058 11.8292 10.6058 11.6364C10.6058 11.4435 10.5314 11.2585 10.3988 11.1222C10.2662 10.9858 10.0864 10.9091 9.89889 10.9091H4.24234C4.05482 10.9091 3.87501 10.9858 3.74243 11.1222C3.60985 11.2585 3.53537 11.4435 3.53537 11.6364C3.53537 11.8292 3.60985 12.0142 3.74243 12.1506C3.87501 12.287 4.05482 12.3636 4.24234 12.3636Z" fill="#197E4C"/>
</g>
<defs>
<clipPath id="clip0_6519_22931">
<rect width="14" height="16" fill="white"/>
</clipPath>
</defs>
</svg>
